<svg xmlns="http://www.w3.org/2000/svg" xmlns:svg="http://www.w3.org/2000/svg" xmlns:xlink="http://www.w3.org/1999/xlink" width="1143px" height="595px" viewBox="0 0 1143 595" preserveAspectRatio="xMidYMid meet" zoomAndPan="disable" onload="if (parent.svgViewerNotifyOnLoad) parent.svgViewerNotifyOnLoad(evt);"><defs id="svgEditorDefs"><line id="svgEditorLineDefs" style="stroke: #000000; fill: none; vector-effect: non-scaling-stroke; stroke-width: 5px;"></line></defs><rect id="svgEditorBackground" x="0" y="0" width="1143" height="595" style="fill: none; stroke: none;" transform=""></rect><path d="M371,101l0,0l-15,58l40,-1" stroke-width="8px" id="e3_path" style="fill: none; stroke: #000000; vector-effect: non-scaling-stroke;" transform=""></path><path d="M 459 103 l 0 0 l -27.9875 58.9626" stroke-width="8px" id="e4_path" style="fill: none; stroke: #000000; vector-effect: non-scaling-stroke;" transform="matrix(1.01261 0 0 1.01261 -5.95383 -1.05969)"></path><path d="M 445 139 l 0 0 l 28 0" stroke-width="8px" id="e6_path" style="fill: none; stroke: #000000; vector-effect: non-scaling-stroke;" transform=""></path><path d="M 173.839 96.9011 l 0 0 q -12 56 7 67 q 45 12 47 -64" stroke-width="8px" id="e9_path" style="fill: none; stroke: #000000; vector-effect: non-scaling-stroke;" transform="matrix(0.856965 0 0 0.909991 48.4929 13.011)"></path><path d="M 327 108 a 30.4026 30.4026 0 1 0 3 45" stroke-width="8px" id="e12_circleArc" style="fill: none; stroke: #000000; vector-effect: non-scaling-stroke;" transform="matrix(1 0 0 1 -7 0)"></path><path d="M 457.004 104.866 l -0.938782 -2.79652 l 27.6642 55.9902 Z" stroke-width="8px" id="e13_path" style="fill: none; stroke: #000000; vector-effect: non-scaling-stroke;" transform="matrix(1.072 0.00226666 -0.00226666 1.072 -30.634 -7.89362)"></path></svg>